# xmcd
# Track frame offsets:
# 150
# 10019
# 22277
# 30493
# 40622
# 49900
# 61874
# 71389
# 81105
# 91243
# 102395
# 113761
# 126069
# 134110
# 142585
# 150178
# 162209
# 172191
# 181067
# 190823
# 201504
# 210399
# 219328
# 229226
# 240008
# 251802
# 260907
# 271140
# 282267
# 290181
#
# Disc length: 3977 seconds
# Revision: 1
# Processed by: cddbd v1.5.2PL0 Copyright (c) Steve Scherf et al.
# Submitted via: VisiTrax 2.11.3.279 - For more info visit www.synapsa.com
#
DISCID=a80f871e
DTITLE=Johnny Cash - Rock 'N' Roll Legend
DYEAR=2008
DGENRE=Country
TTITLE0=Ballad Of A Teenage Queen
TTITLE1=I Walk The Line
TTITLE2=Guess Things Happen That Way
TTITLE3=The Ways Of A Woman In Love
TTITLE4=Down The Street To 301
TTITLE5=You're The Nearest Thing To Heaven
TTITLE6=It's Just About Time
TTITLE7=Born To Lose
TTITLE8=Straight A's In Love
TTITLE9=Oh, Lonesome Me
TTITLE10=Big River
TTITLE11=Next In Line
TTITLE12=Sugartime
TTITLE13=I Forgot To Remember To Forget
TTITLE14=Come In Stranger
TTITLE15=Give My Love To Rose
TTITLE16=Goodbye, Little Darlin'
TTITLE17=Katy Too
TTITLE18=The Story Of A Broken Heart
TTITLE19=I Just Thought You'd Like To Know
TTITLE20=Life Goes On
TTITLE21=Remember Me
TTITLE22=I Could Never Be Ashamed Of You
TTITLE23=Fool's Hall Of Fame
TTITLE24=Thanks A Lot
TTITLE25=Blue Train
TTITLE26=There You Go
TTITLE27=Don't Make Me Go
TTITLE28=I Can't Help It
TTITLE29=Always Alone
EXTD=CHARLY
EXTT0=
EXTT1=
EXTT2=
EXTT3=
EXTT4=
EXTT5=
EXTT6=
EXTT7=
EXTT8=
EXTT9=
EXTT10=
EXTT11=
EXTT12=
EXTT13=
EXTT14=
EXTT15=
EXTT16=
EXTT17=
EXTT18=
EXTT19=
EXTT20=
EXTT21=
EXTT22=
EXTT23=
EXTT24=
EXTT25=
EXTT26=
EXTT27=
EXTT28=
EXTT29=
PLAYORDER=
